<svg width="12" height="11" viewBox="0 0 12 11" fill="none" xmlns="http://www.w3.org/2000/svg">
<path fill-rule="evenodd" clip-rule="evenodd" d="M6.37476 1.00684C6.37476 0.799729 6.20686 0.631836 5.99976 0.631836C5.79265 0.631836 5.62476 0.799729 5.62476 1.00684V5.29852H1.33301C1.1259 5.29852 0.958008 5.46642 0.958008 5.67352C0.958008 5.88063 1.1259 6.04852 1.33301 6.04852H5.62476V10.3402C5.62476 10.5473 5.79265 10.7152 5.99976 10.7152C6.20686 10.7152 6.37476 10.5473 6.37476 10.3402V6.04852H10.6663C10.8734 6.04852 11.0413 5.88063 11.0413 5.67352C11.0413 5.46642 10.8734 5.29852 10.6663 5.29852H6.37476V1.00684Z" fill="#121212"/>
</svg>
